<svg width="42" height="42" viewBox="0 0 42 42" fill="none" xmlns="http://www.w3.org/2000/svg">
<path id="Vector" d="M39.375 3.93315L28.8658 3.9332V1.31738C28.8658 0.592226 28.2785 0.00488281 27.5533 0.00488281C26.8282 0.00488281 26.2408 0.592226 26.2408 1.31738V3.93254H15.7408V1.31738C15.7408 0.592226 15.1535 0.00488281 14.4283 0.00488281C13.7032 0.00488281 13.1158 0.592226 13.1158 1.31738V3.93254H2.625C1.17534 3.93254 0 5.10788 0 6.55754V39.37C0 40.8197 1.17534 41.995 2.625 41.995H39.375C40.8247 41.995 42 40.8197 42 39.37V6.55754C42 5.1085 40.8247 3.93315 39.375 3.93315ZM39.375 39.37H2.625V6.55754H13.1158V7.87988C13.1158 8.605 13.7032 9.19238 14.4283 9.19238C15.1535 9.19238 15.7408 8.605 15.7408 7.87988V6.55819H26.2408V7.88054C26.2408 8.60569 26.8282 9.19304 27.5533 9.19304C28.2785 9.19304 28.8658 8.60569 28.8658 7.88054V6.55819H39.375V39.37ZM30.1875 20.9957H32.8125C33.537 20.9957 34.125 20.4077 34.125 19.6832V17.0582C34.125 16.3337 33.537 15.7457 32.8125 15.7457H30.1875C29.463 15.7457 28.875 16.3337 28.875 17.0582V19.6832C28.875 20.4077 29.463 20.9957 30.1875 20.9957ZM30.1875 31.495H32.8125C33.537 31.495 34.125 30.9077 34.125 30.1825V27.5575C34.125 26.833 33.537 26.245 32.8125 26.245H30.1875C29.463 26.245 28.875 26.833 28.875 27.5575V30.1825C28.875 30.9083 29.463 31.495 30.1875 31.495ZM22.3125 26.245H19.6875C18.963 26.245 18.375 26.833 18.375 27.5575V30.1825C18.375 30.9077 18.963 31.495 19.6875 31.495H22.3125C23.037 31.495 23.625 30.9077 23.625 30.1825V27.5575C23.625 26.8337 23.037 26.245 22.3125 26.245ZM22.3125 15.7457H19.6875C18.963 15.7457 18.375 16.3337 18.375 17.0582V19.6832C18.375 20.4077 18.963 20.9957 19.6875 20.9957H22.3125C23.037 20.9957 23.625 20.4077 23.625 19.6832V17.0582C23.625 16.333 23.037 15.7457 22.3125 15.7457ZM11.8125 15.7457H9.1875C8.463 15.7457 7.875 16.3337 7.875 17.0582V19.6832C7.875 20.4077 8.463 20.9957 9.1875 20.9957H11.8125C12.537 20.9957 13.125 20.4077 13.125 19.6832V17.0582C13.125 16.333 12.537 15.7457 11.8125 15.7457ZM11.8125 26.245H9.1875C8.463 26.245 7.875 26.833 7.875 27.5575V30.1825C7.875 30.9077 8.463 31.495 9.1875 31.495H11.8125C12.537 31.495 13.125 30.9077 13.125 30.1825V27.5575C13.125 26.8337 12.537 26.245 11.8125 26.245Z" fill="#13007D"/>
</svg>
