<svg width="39" height="39" viewBox="0 0 39 39" fill="none" xmlns="http://www.w3.org/2000/svg">
<g id="Group 58">
<path id="Vector" d="M19.5 30.25L11.3166 18.6938C9.97708 17.1122 9.11447 15.1827 8.82921 13.1299C8.54395 11.0771 8.84776 8.98554 9.70527 7.09874C10.5628 5.21193 11.9387 3.60758 13.6728 2.47252C15.4068 1.33747 17.4277 0.71843 19.5 0.6875C22.3726 0.715887 25.1168 1.88155 27.1317 3.92918C29.1466 5.97681 30.2679 8.73951 30.25 11.6122C30.2511 14.1182 29.3979 16.5497 27.8312 18.5056L19.5 30.25ZM19.5 3.375C17.339 3.39982 15.2763 4.28119 13.7646 5.8256C12.253 7.37001 11.416 9.45121 11.4375 11.6122C11.4465 13.5846 12.1561 15.4896 13.4397 16.9872L19.5 25.5738L25.7216 16.8125C26.9042 15.3363 27.553 13.5036 27.5625 11.6122C27.584 9.45121 26.747 7.37001 25.2354 5.8256C23.7237 4.28119 21.6609 3.39982 19.5 3.375Z" fill="#13007D"/>
<path id="Vector_2" d="M35.625 14.125H32.9375V16.8125H35.625V35.625H3.375V16.8125H6.0625V14.125H3.375C2.66223 14.125 1.97865 14.4081 1.47465 14.9122C0.970646 15.4162 0.6875 16.0997 0.6875 16.8125V35.625C0.6875 36.3378 0.970646 37.0213 1.47465 37.5253C1.97865 38.0294 2.66223 38.3125 3.375 38.3125H35.625C36.3378 38.3125 37.0213 38.0294 37.5253 37.5253C38.0294 37.0213 38.3125 36.3378 38.3125 35.625V16.8125C38.3125 16.0997 38.0294 15.4162 37.5253 14.9122C37.0213 14.4081 36.3378 14.125 35.625 14.125Z" fill="#13007D"/>
</g>
</svg>
