<svg width="31" height="31" viewBox="0 0 31 31" fill="none" xmlns="http://www.w3.org/2000/svg">
<g id="Group 57">
<path id="Vector" d="M1.09175 17.7253C2.17383 24.6975 8.2405 30.0773 15.5015 30.0773C23.5209 30.0773 30.082 23.5163 30.082 15.4969C30.082 7.47755 23.5224 0.916504 15.503 0.916504C10.6934 0.916504 6.46133 3.2513 3.83341 6.74984V0.917962L0.921123 0.916504L0.916748 11.1248H11.1251V8.20817L6.45987 8.20671C8.50008 5.58463 11.8572 3.83317 15.503 3.83317C21.9167 3.83317 27.1667 9.08317 27.1667 15.4969C27.1667 21.9107 21.9167 27.1621 15.5015 27.1621C9.84612 27.1621 5.10071 23.0875 4.05508 17.7253H1.09175Z" fill="#13007D"/>
<path id="Vector_2" d="M14.0447 8.20703V15.9391L18.7128 22.2056L21.0461 20.4599L16.9613 15.0627V8.20703H14.0447Z" fill="#13007D"/>
</g>
</svg>
